<?xml version="1.0" encoding="utf-8"?>
<!-- Generator: Adobe Illustrator 17.0.1, SVG Export Plug-In . SVG Version: 6.00 Build 0)  -->
<!DOCTYPE svg PUBLIC "-//W3C//DTD SVG 1.1//EN" "http://www.w3.org/Graphics/SVG/1.1/DTD/svg11.dtd">
<svg version="1.1" id="Слой_1" xmlns="http://www.w3.org/2000/svg" xmlns:xlink="http://www.w3.org/1999/xlink" x="0px" y="0px"
	 width="360px" height="95px" viewBox="0 0 360 95" enable-background="new 0 0 360 95" xml:space="preserve">
<g>
	<path fill="#F26C4F" d="M90.56,30.92L46.08,61.96c1.172,0.854,2.4,1.468,3.68,1.84c1.28,0.375,2.933,0.56,4.96,0.56
		c4.16,0,8.265-0.959,12.32-2.879c2.772-1.28,5.44-3.041,8-5.28L88.8,79.721c-6.188,4.479-12.747,7.68-19.68,9.6
		c-5.335,1.492-10.775,2.24-16.32,2.24c-15.575,0-27.947-4.533-37.12-13.601C7.36,69.748,3.2,59.668,3.2,47.72
		c0-11.945,4.16-22.133,12.48-30.56C24.425,8.308,35.52,3.88,48.96,3.88c8.853,0,16.985,2.268,24.4,6.8
		C80.772,15.215,86.505,21.96,90.56,30.92z M58.08,32.52c-1.28-1.385-2.667-2.4-4.16-3.04c-1.495-0.64-3.2-0.96-5.12-0.96
		c-3.84,0-7.12,1.255-9.84,3.76c-2.72,2.508-4.08,6.16-4.08,10.96c0,1.815,0.373,3.36,1.12,4.64L58.08,32.52z"/>
	<path fill="#5674B9" d="M116.927,79.305L114.719,89H95.135V56.072l10.416-0.768v24H116.927z"/>
	<path fill="#5674B9" d="M130.127,89l-10.416,0.768V56.072l10.416-0.768V89z"/>
	<path fill="#5674B9" d="M161.23,79.688c0,2.753-1.008,4.992-3.024,6.721S153.582,89,150.383,89h-14.976V56.072h13.536
		c3.711,0,6.576,0.896,8.592,2.688c1.759,1.568,2.64,3.568,2.64,6c0,1.536-0.353,2.904-1.056,4.104
		c-0.704,1.201-1.76,2.137-3.168,2.809c1.792,0.736,3.151,1.872,4.08,3.408C160.83,76.424,161.23,77.96,161.23,79.688z
		 M149.759,66.104c0-0.768-0.264-1.383-0.792-1.848c-0.528-0.463-1.224-0.695-2.088-0.695h-1.056v5.135h1.248
		c0.832,0,1.488-0.255,1.968-0.768C149.519,67.416,149.759,66.809,149.759,66.104z M150.383,78.439c0-0.831-0.272-1.52-0.816-2.063
		c-0.544-0.544-1.36-0.815-2.448-0.815h-1.296v5.76h1.296c1.216,0,2.096-0.352,2.64-1.057
		C150.174,79.721,150.383,79.111,150.383,78.439z"/>
	<path fill="#5674B9" d="M192.479,88.564l-11.472,1.203l-5.616-14.447h-0.192V89l-10.416,0.768V56.072h11.376
		c4.032,0,7.2,0.512,9.503,1.535c3.713,1.665,5.568,4.625,5.568,8.881c0,1.855-0.456,3.512-1.367,4.968
		c-0.912,1.456-2.217,2.536-3.912,3.239L192.479,88.564z M180.287,69.176c0-1.152-0.368-2.096-1.104-2.832
		c-0.736-0.735-1.664-1.104-2.784-1.104h-1.2v7.92h1.392c1.087,0,1.975-0.392,2.664-1.176
		C179.942,71.2,180.287,70.264,180.287,69.176z"/>
	<path fill="#5674B9" d="M226.654,89l-11.279,0.768l-1.633-5.711h-9.023l-1.681,5.711L192.143,89l10.848-32.928h12.576L226.654,89z
		 M211.773,75.848L209.23,65.48l-2.688,10.367H211.773z"/>
	<path fill="#5674B9" d="M255.598,88.564l-11.473,1.203L238.51,75.32h-0.191V89l-10.416,0.768V56.072h11.375
		c4.033,0,7.201,0.512,9.504,1.535c3.713,1.665,5.568,4.625,5.568,8.881c0,1.855-0.455,3.512-1.367,4.968s-2.217,2.536-3.912,3.239
		L255.598,88.564z M243.406,69.176c0-1.152-0.369-2.096-1.104-2.832c-0.738-0.735-1.666-1.104-2.785-1.104h-1.199v7.92h1.391
		c1.088,0,1.977-0.392,2.664-1.176S243.406,70.264,243.406,69.176z"/>
	<path fill="#5674B9" d="M284.494,56.264l-12.816,33.492l-11.424-1.15l4.799-10.365l-10.127-21.977l11.375-0.959l3.936,11.039
		l3.506-11.039L284.494,56.264z"/>
	<path fill="#5674B9" d="M296.109,83.516l-6.24,6.24l-6.24-6.24l6.24-6.24L296.109,83.516z"/>
	<path fill="#5674B9" d="M326.734,88.564l-11.473,1.203l-5.617-14.447h-0.191V89l-10.416,0.768V56.072h11.377
		c4.031,0,7.199,0.512,9.504,1.535c3.711,1.665,5.568,4.625,5.568,8.881c0,1.855-0.457,3.512-1.369,4.968s-2.217,2.536-3.912,3.239
		L326.734,88.564z M314.541,69.176c0-1.152-0.367-2.096-1.104-2.832c-0.736-0.735-1.664-1.104-2.783-1.104h-1.201v7.92h1.393
		c1.088,0,1.975-0.392,2.664-1.176C314.197,71.2,314.541,70.264,314.541,69.176z"/>
	<path fill="#5674B9" d="M355.342,78.344c0,3.809-1.279,6.705-3.84,8.688c-2.336,1.823-5.52,2.735-9.553,2.735
		c-3.52,0-6.367-0.975-8.543-2.928c-2.176-1.951-3.264-4.752-3.264-8.4V56.072l10.416-0.768v22.367c0,0.96,0.184,1.648,0.551,2.064
		s0.953,0.623,1.752,0.623c0.832,0,1.408-0.303,1.729-0.911c0.225-0.415,0.336-1.009,0.336-1.776v-21.6l10.416-0.768V78.344z"/>
</g>
<g>
	<path d="M95.727,19.444V5.128h1.895v5.879h7.441V5.128h1.895v14.316h-1.895v-6.748h-7.441v6.748H95.727z"/>
	<path d="M109.039,19.444l5.498-14.316h2.041l5.859,14.316h-2.158l-1.67-4.336h-5.986l-1.572,4.336H109.039z M113.17,13.565h4.854
		l-1.494-3.965c-0.456-1.205-0.794-2.194-1.016-2.969c-0.182,0.918-0.439,1.83-0.771,2.734L113.17,13.565z"/>
	<path d="M123.006,5.128h1.914l4.668,8.77l4.082-8.77h1.885l-5.371,11.133c-0.67,1.393-1.221,2.305-1.65,2.734
		s-1.045,0.645-1.846,0.645c-0.488,0-1.087-0.114-1.797-0.342v-1.621c0.508,0.293,1.045,0.439,1.611,0.439
		c0.462,0,0.861-0.148,1.196-0.444s0.705-0.972,1.108-2.026L123.006,5.128z"/>
	<path d="M147.871,19.444h-1.895v-5.771c-1.699,0.631-3.187,0.947-4.463,0.947c-0.996,0-1.875-0.233-2.637-0.698
		s-1.271-1.056-1.528-1.772s-0.386-1.654-0.386-2.813V5.128h1.895v4.033c0,1.563,0.285,2.589,0.854,3.081s1.255,0.737,2.056,0.737
		c1.334,0,2.738-0.296,4.209-0.889V5.128h1.895V19.444z"/>
	<path d="M151.545,19.444V5.128h1.895v5.879h7.441V5.128h1.895v14.316h-1.895v-6.748h-7.441v6.748H151.545z"/>
	<path d="M164.857,19.444l5.498-14.316h2.041l5.859,14.316h-2.158l-1.67-4.336h-5.986l-1.572,4.336H164.857z M168.988,13.565h4.854
		l-1.494-3.965c-0.456-1.205-0.794-2.194-1.016-2.969c-0.182,0.918-0.439,1.83-0.771,2.734L168.988,13.565z"/>
	<path d="M189.703,19.444v-6.357h-2.197c-0.488,0-0.84,0.023-1.055,0.068c-0.293,0.072-0.581,0.199-0.864,0.381
		s-0.604,0.501-0.962,0.957s-0.814,1.113-1.367,1.973l-1.895,2.979h-2.383l2.49-3.896c0.494-0.762,1.02-1.396,1.572-1.904
		c0.26-0.234,0.641-0.472,1.143-0.713c-1.373-0.189-2.389-0.631-3.047-1.328c-0.658-0.697-0.986-1.553-0.986-2.568
		c0-0.788,0.199-1.507,0.596-2.158c0.396-0.651,0.928-1.105,1.592-1.362s1.635-0.386,2.91-0.386h6.348v14.316H189.703z
		 M189.703,6.71h-4.531c-1.061,0-1.838,0.218-2.329,0.654s-0.737,0.993-0.737,1.67c0,0.462,0.127,0.89,0.381,1.284
		s0.625,0.68,1.113,0.859s1.166,0.269,2.031,0.269h4.072V6.71z"/>
	<path d="M211.084,11.212c-0.078-1.432-0.513-2.568-1.304-3.408s-1.884-1.26-3.276-1.26c-2.064,0-3.365,1-3.906,2.998l-1.855-0.488
		c0.352-1.309,1.027-2.331,2.026-3.066s2.241-1.104,3.726-1.104c1.406,0,2.617,0.345,3.633,1.035s1.77,1.572,2.261,2.646
		s0.737,2.262,0.737,3.564c0.072,2.129-0.444,3.921-1.548,5.376s-2.784,2.183-5.044,2.183c-3.158,0-5.15-1.582-5.977-4.746
		l1.826-0.479c0.58,2.422,2.008,3.633,4.287,3.633c1.283,0,2.334-0.464,3.154-1.392s1.266-2.196,1.338-3.804h-5.322v-1.689H211.084z
		"/>
	<path d="M217.189,5.128h8.965v14.316h-1.895V6.817h-5.176v7.373c0,1.498-0.07,2.594-0.21,3.291s-0.435,1.239-0.884,1.626
		s-1.02,0.581-1.709,0.581c-0.416,0-0.918-0.078-1.504-0.234l0.322-1.68c0.313,0.13,0.58,0.195,0.801,0.195
		c0.43,0,0.752-0.161,0.967-0.483s0.322-1.083,0.322-2.28V5.128z"/>
	<path d="M229.809,19.444V5.128h10.352v1.689h-8.457v4.385h7.92v1.68h-7.92v4.873h8.789v1.689H229.809z"/>
	<path d="M243.639,5.128h1.895v6.27c0.865,0,1.475-0.167,1.826-0.503s0.801-1.141,1.348-2.417c0.396-0.938,0.725-1.6,0.981-1.987
		s0.624-0.713,1.099-0.977s1-0.396,1.572-0.396c0.729,0,1.113,0.006,1.152,0.02v1.641c-0.064,0-0.191-0.003-0.381-0.01
		c-0.209-0.006-0.336-0.01-0.381-0.01c-0.605,0-1.055,0.146-1.348,0.439c-0.299,0.293-0.641,0.918-1.025,1.875
		c-0.482,1.211-0.889,1.974-1.221,2.29s-0.729,0.568-1.191,0.757c0.924,0.254,1.836,1.107,2.734,2.559l2.949,4.766h-2.354
		l-2.393-3.887c-0.658-1.074-1.207-1.812-1.65-2.212s-1.016-0.601-1.719-0.601v6.699h-1.895V5.128z"/>
	<path d="M259.402,19.444V6.817h-4.717V5.128h11.348v1.689h-4.736v12.627H259.402z"/>
	<path d="M268.477,19.444V5.128h5.4c0.951,0,1.676,0.045,2.178,0.137c0.703,0.117,1.293,0.34,1.768,0.669s0.857,0.79,1.147,1.382
		s0.435,1.244,0.435,1.953c0,1.217-0.387,2.248-1.162,3.091s-2.174,1.265-4.199,1.265h-3.672v5.82H268.477z M270.371,11.935h3.701
		c1.225,0,2.094-0.228,2.607-0.684s0.771-1.097,0.771-1.924c0-0.599-0.151-1.112-0.454-1.538s-0.702-0.708-1.196-0.845
		c-0.318-0.084-0.908-0.127-1.768-0.127h-3.662V11.935z"/>
	<path d="M281.74,12.472c0-2.376,0.639-4.237,1.914-5.581s2.924-2.017,4.941-2.017c1.322,0,2.514,0.316,3.574,0.947
		s1.87,1.512,2.427,2.642s0.835,2.411,0.835,3.843c0,1.452-0.293,2.75-0.879,3.896s-1.416,2.013-2.49,2.603
		s-2.232,0.884-3.477,0.884c-1.348,0-2.553-0.326-3.613-0.977s-1.865-1.54-2.412-2.666S281.74,13.728,281.74,12.472z
		 M283.693,12.501c0,1.725,0.464,3.084,1.392,4.077s2.091,1.489,3.491,1.489c1.426,0,2.6-0.501,3.521-1.504s1.382-2.425,1.382-4.268
		c0-1.166-0.197-2.183-0.591-3.052s-0.97-1.543-1.729-2.021s-1.61-0.718-2.554-0.718c-1.342,0-2.495,0.46-3.462,1.382
		S283.693,10.346,283.693,12.501z"/>
	<path d="M298.432,19.444V5.128h1.895v5.879h7.441V5.128h1.895v14.316h-1.895v-6.748h-7.441v6.748H298.432z"/>
	<path d="M313.375,19.444V5.128h1.895v5.879h7.441V5.128h1.895v14.316h-1.895v-6.748h-7.441v6.748H313.375z"/>
	<path d="M326.688,19.444l5.498-14.316h2.041l5.859,14.316h-2.158l-1.67-4.336h-5.986l-1.572,4.336H326.688z M330.818,13.565h4.854
		l-1.494-3.965c-0.455-1.205-0.795-2.194-1.016-2.969c-0.182,0.918-0.439,1.83-0.771,2.734L330.818,13.565z"/>
	<path d="M351.533,19.444v-6.357h-2.197c-0.488,0-0.84,0.023-1.055,0.068c-0.293,0.072-0.581,0.199-0.864,0.381
		s-0.604,0.501-0.962,0.957s-0.814,1.113-1.367,1.973l-1.895,2.979h-2.383l2.49-3.896c0.494-0.762,1.02-1.396,1.572-1.904
		c0.26-0.234,0.641-0.472,1.143-0.713c-1.373-0.189-2.389-0.631-3.047-1.328s-0.986-1.553-0.986-2.568
		c0-0.788,0.199-1.507,0.596-2.158s0.928-1.105,1.592-1.362s1.635-0.386,2.91-0.386h6.348v14.316H351.533z M351.533,6.71h-4.531
		c-1.061,0-1.838,0.218-2.329,0.654s-0.737,0.993-0.737,1.67c0,0.462,0.127,0.89,0.381,1.284s0.625,0.68,1.113,0.859
		s1.166,0.269,2.031,0.269h4.072V6.71z"/>
	<path d="M217.902,29.128h9.287v1.689h-7.393v4.414h3.418c1.264,0,2.268,0.121,3.013,0.361s1.343,0.695,1.792,1.362
		s0.674,1.444,0.674,2.329c0,0.723-0.161,1.398-0.483,2.026s-0.802,1.141-1.44,1.538s-1.725,0.596-3.262,0.596h-5.605V29.128z
		 M219.797,41.833h3.789c1.021,0,1.789-0.208,2.3-0.625s0.767-1.042,0.767-1.875c0-0.592-0.146-1.087-0.439-1.484
		s-0.699-0.661-1.221-0.791s-1.41-0.195-2.666-0.195h-2.529V41.833z"/>
	<path d="M231.469,29.128h1.719v11.338l7.617-11.338h1.904v14.316h-1.719V32.136l-7.627,11.309h-1.895V29.128z"/>
	<path d="M246.402,29.128h9.287v1.689h-7.393v4.414h3.418c1.264,0,2.268,0.121,3.013,0.361s1.343,0.695,1.792,1.362
		s0.674,1.444,0.674,2.329c0,0.723-0.161,1.398-0.483,2.026s-0.802,1.141-1.44,1.538s-1.725,0.596-3.262,0.596h-5.605V29.128z
		 M248.297,41.833h3.789c1.021,0,1.789-0.208,2.3-0.625s0.767-1.042,0.767-1.875c0-0.592-0.146-1.087-0.439-1.484
		s-0.699-0.661-1.221-0.791s-1.41-0.195-2.666-0.195h-2.529V41.833z"/>
	<path d="M260.984,29.128h8.965v14.316h-1.895V30.817h-5.176v7.373c0,1.498-0.07,2.594-0.21,3.291s-0.435,1.239-0.884,1.626
		s-1.02,0.581-1.709,0.581c-0.416,0-0.918-0.078-1.504-0.234l0.322-1.68c0.313,0.13,0.58,0.195,0.801,0.195
		c0.43,0,0.752-0.161,0.967-0.483s0.322-1.083,0.322-2.28V29.128z"/>
	<path d="M273.594,29.128h1.719v11.338l7.617-11.338h1.904v14.316h-1.719V32.136l-7.627,11.309h-1.895V29.128z"/>
	<path d="M287.863,36.472c0-2.376,0.639-4.237,1.914-5.581s2.924-2.017,4.941-2.017c1.322,0,2.514,0.316,3.574,0.947
		s1.87,1.512,2.427,2.642s0.835,2.411,0.835,3.843c0,1.452-0.293,2.75-0.879,3.896s-1.416,2.013-2.49,2.603
		s-2.232,0.884-3.477,0.884c-1.348,0-2.553-0.326-3.613-0.977s-1.865-1.54-2.412-2.666S287.863,37.728,287.863,36.472z
		 M289.816,36.501c0,1.725,0.464,3.084,1.392,4.077s2.091,1.489,3.491,1.489c1.426,0,2.6-0.501,3.521-1.504s1.382-2.425,1.382-4.268
		c0-1.166-0.197-2.183-0.591-3.052s-0.97-1.543-1.729-2.021s-1.61-0.718-2.554-0.718c-1.342,0-2.495,0.46-3.462,1.382
		S289.816,34.346,289.816,36.501z"/>
	<path d="M308.139,43.444V30.817h-4.717v-1.689h11.348v1.689h-4.736v12.627H308.139z"/>
	<path d="M317.252,43.444V29.128h10.352v1.689h-8.457v4.385h7.92v1.68h-7.92v4.873h8.789v1.689H317.252z"/>
	<path d="M331.082,29.128h1.895v6.27c0.865,0,1.475-0.167,1.826-0.503s0.801-1.141,1.348-2.417c0.396-0.938,0.725-1.6,0.981-1.987
		s0.624-0.713,1.099-0.977s1-0.396,1.572-0.396c0.729,0,1.113,0.006,1.152,0.02v1.641c-0.064,0-0.191-0.003-0.381-0.01
		c-0.209-0.006-0.336-0.01-0.381-0.01c-0.605,0-1.055,0.146-1.348,0.439c-0.299,0.293-0.641,0.918-1.025,1.875
		c-0.482,1.211-0.889,1.974-1.221,2.29s-0.729,0.568-1.191,0.757c0.924,0.254,1.836,1.107,2.734,2.559l2.949,4.766h-2.354
		l-2.393-3.887c-0.658-1.074-1.207-1.812-1.65-2.212s-1.016-0.601-1.719-0.601v6.699h-1.895V29.128z"/>
	<path d="M341.631,43.444l5.498-14.316h2.041l5.859,14.316h-2.158l-1.67-4.336h-5.986l-1.572,4.336H341.631z M345.762,37.565h4.854
		l-1.494-3.965c-0.455-1.205-0.795-2.194-1.016-2.969c-0.182,0.918-0.439,1.83-0.771,2.734L345.762,37.565z"/>
</g>
<g>
</g>
<g>
</g>
<g>
</g>
<g>
</g>
<g>
</g>
<g>
</g>
<g>
</g>
<g>
</g>
<g>
</g>
<g>
</g>
<g>
</g>
<g>
</g>
<g>
</g>
<g>
</g>
<g>
</g>
</svg>
