<?xml version="1.0" encoding="utf-8"?>
<!-- Generator: Adobe Illustrator 17.0.1, SVG Export Plug-In . SVG Version: 6.00 Build 0)  -->
<!DOCTYPE svg PUBLIC "-//W3C//DTD SVG 1.1//EN" "http://www.w3.org/Graphics/SVG/1.1/DTD/svg11.dtd">
<svg version="1.1" id="Слой_1" xmlns="http://www.w3.org/2000/svg" xmlns:xlink="http://www.w3.org/1999/xlink" x="0px" y="0px"
	 width="420px" height="120px" viewBox="0 0 420 120" enable-background="new 0 0 420 120" xml:space="preserve">
<g>
	<path fill="#F26C4F" d="M382.182,44.535c-0.195-3.369-0.879-6.713-2.051-10.034c-1.66-4.785-2.49-8.081-2.49-9.888
		c0-2.538,0.598-4.468,1.795-5.786c1.195-1.318,2.673-1.978,4.431-1.978c1.513,0,2.831,0.659,3.955,1.978
		c1.123,1.318,1.685,3.199,1.685,5.64c0,2.197-0.647,5.262-1.941,9.192c-1.294,3.931-2.087,7.557-2.38,10.876
		c2.685-1.708,5.102-3.783,7.251-6.226c3.32-3.856,5.786-6.25,7.397-7.178c1.611-0.927,3.247-1.392,4.907-1.392
		c1.611,0,2.967,0.549,4.064,1.648c1.1,1.099,1.648,2.406,1.648,3.918c0,1.807-0.806,3.418-2.417,4.834
		c-1.611,1.417-5.64,2.833-12.085,4.248c-3.761,0.831-6.885,1.783-9.375,2.856c2.538,1.318,5.64,2.32,9.302,3.003
		c5.907,1.075,9.778,2.417,11.608,4.028c1.832,1.611,2.747,3.369,2.747,5.273c0,1.465-0.55,2.735-1.647,3.809
		c-1.1,1.074-2.381,1.611-3.846,1.611s-3.089-0.513-4.871-1.538s-4.187-3.32-7.214-6.885c-2.003-2.392-4.493-4.638-7.471-6.738
		c0.098,2.783,0.659,5.812,1.685,9.082c1.758,5.762,2.637,9.693,2.637,11.792c0,1.953-0.586,3.602-1.758,4.943
		c-1.172,1.344-2.417,2.015-3.735,2.015c-1.807,0-3.442-0.707-4.907-2.124c-1.025-1.025-1.538-2.661-1.538-4.907
		c0-2.344,0.561-5.164,1.685-8.46c1.123-3.295,1.831-5.566,2.124-6.811s0.561-3.087,0.806-5.53
		c-2.882,1.904-5.396,4.028-7.544,6.372c-3.564,4.004-6.251,6.544-8.057,7.617c-1.271,0.781-2.589,1.172-3.955,1.172
		c-1.661,0-3.076-0.561-4.248-1.685c-1.172-1.123-1.758-2.368-1.758-3.735c0-1.22,0.5-2.501,1.501-3.845
		c1-1.342,2.502-2.454,4.505-3.333c1.318-0.586,4.321-1.366,9.009-2.344c3.027-0.634,5.98-1.562,8.862-2.783
		c-2.637-1.318-5.786-2.344-9.448-3.076c-6.006-1.269-9.717-2.417-11.133-3.442c-2.197-1.611-3.296-3.563-3.296-5.859
		c0-1.318,0.55-2.527,1.647-3.625c1.1-1.099,2.381-1.648,3.846-1.648c1.611,0,3.32,0.513,5.127,1.538
		c1.806,1.025,4.053,3.089,6.738,6.189C376.663,40.422,379.398,42.827,382.182,44.535z"/>
</g>
<g>
	<path fill="#5674B9" d="M31.002,66.302l0.354,14.566h-1.321c-0.624-3.652-2.154-6.591-4.592-8.813
		c-2.438-2.225-5.076-3.336-7.912-3.336c-2.191,0-3.927,0.586-5.205,1.756c-1.278,1.172-1.917,2.52-1.917,4.045
		c0,0.967,0.226,1.826,0.677,2.578c0.623,1.01,1.622,2.009,2.997,2.997c1.01,0.709,3.34,1.966,6.993,3.771
		c5.113,2.514,8.561,4.888,10.345,7.122c1.761,2.234,2.643,4.791,2.643,7.67c0,3.652-1.423,6.795-4.27,9.427
		c-2.847,2.632-6.461,3.947-10.844,3.947c-1.375,0-2.675-0.14-3.899-0.419s-2.761-0.806-4.608-1.579
		c-1.031-0.43-1.88-0.645-2.546-0.645c-0.559,0-1.149,0.215-1.772,0.645c-0.624,0.43-1.128,1.085-1.515,1.966H3.416v-16.5h1.192
		c0.945,4.641,2.766,8.181,5.462,10.618c2.696,2.439,5.602,3.658,8.717,3.658c2.406,0,4.323-0.655,5.752-1.966
		c1.429-1.311,2.143-2.836,2.143-4.576c0-1.031-0.274-2.03-0.822-2.997s-1.381-1.885-2.498-2.756
		c-1.117-0.869-3.094-2.003-5.93-3.399c-3.975-1.955-6.832-3.62-8.572-4.995s-3.078-2.911-4.012-4.608s-1.402-3.566-1.402-5.607
		c0-3.48,1.278-6.445,3.835-8.895c2.557-2.449,5.779-3.674,9.668-3.674c1.418,0,2.792,0.172,4.125,0.516
		c1.01,0.258,2.24,0.736,3.69,1.435s2.465,1.047,3.045,1.047c0.559,0,0.999-0.172,1.321-0.516s0.623-1.171,0.902-2.481H31.002z"/>
	<path fill="#5674B9" d="M61.869,103.233l0.999,0.773c-1.418,2.664-3.186,4.646-5.301,5.946c-2.116,1.299-4.367,1.949-6.751,1.949
		c-4.018,0-7.23-1.515-9.636-4.544c-2.406-3.029-3.609-6.671-3.609-10.925c0-4.104,1.096-7.713,3.287-10.828
		c2.643-3.76,6.284-5.64,10.925-5.64c3.115,0,5.591,0.784,7.428,2.353s2.755,3.319,2.755,5.253c0,1.225-0.371,2.202-1.112,2.933
		S59.14,91.6,57.937,91.6c-1.268,0-2.315-0.419-3.142-1.257c-0.827-0.838-1.337-2.331-1.531-4.479
		c-0.129-1.354-0.44-2.299-0.935-2.836c-0.495-0.537-1.075-0.806-1.74-0.806c-1.031,0-1.913,0.548-2.643,1.644
		c-1.117,1.654-1.676,4.189-1.676,7.605c0,2.836,0.451,5.549,1.354,8.137c0.902,2.59,2.138,4.518,3.706,5.785
		c1.181,0.924,2.578,1.386,4.189,1.386c1.052,0,2.051-0.247,2.997-0.741C59.462,105.543,60.58,104.608,61.869,103.233z"/>
	<path fill="#5674B9" d="M76.687,80.868v23.88c0,2.127,0.247,3.486,0.741,4.076c0.494,0.592,1.461,0.93,2.9,1.016V111H64.054v-1.16
		c1.332-0.043,2.32-0.43,2.965-1.16c0.43-0.494,0.645-1.805,0.645-3.932V87.152c0-2.127-0.247-3.485-0.741-4.076
		c-0.495-0.591-1.45-0.93-2.868-1.016v-1.192H76.687z M72.175,66.27c1.396,0,2.578,0.489,3.545,1.467s1.45,2.153,1.45,3.528
		s-0.489,2.546-1.466,3.513c-0.978,0.967-2.154,1.45-3.529,1.45c-1.375,0-2.546-0.483-3.513-1.45s-1.45-2.138-1.45-3.513
		s0.483-2.551,1.45-3.528S70.8,66.27,72.175,66.27z"/>
	<path fill="#5674B9" d="M107.134,94.854H90.602c0.193,3.996,1.257,7.154,3.19,9.475c1.482,1.783,3.266,2.675,5.35,2.675
		c1.289,0,2.46-0.359,3.513-1.08c1.052-0.719,2.18-2.014,3.384-3.883l1.096,0.709c-1.633,3.33-3.438,5.688-5.414,7.074
		c-1.977,1.385-4.265,2.078-6.864,2.078c-4.469,0-7.853-1.719-10.151-5.156c-1.848-2.771-2.771-6.209-2.771-10.313
		c0-5.027,1.358-9.028,4.077-12.004c2.718-2.976,5.902-4.464,9.555-4.464c3.05,0,5.699,1.252,7.944,3.755
		C105.753,86.224,106.961,89.935,107.134,94.854z M99.206,92.695c0-3.459-0.188-5.833-0.564-7.122
		c-0.376-1.289-0.962-2.267-1.756-2.933c-0.451-0.387-1.053-0.58-1.805-0.58c-1.117,0-2.03,0.548-2.739,1.644
		c-1.268,1.912-1.901,4.533-1.901,7.863v1.128H99.206z"/>
	<path fill="#5674B9" d="M121.565,80.868v3.899c1.547-1.676,3.029-2.895,4.447-3.658c1.418-0.762,2.943-1.144,4.576-1.144
		c1.955,0,3.577,0.543,4.866,1.628s2.148,2.433,2.578,4.044c0.343,1.225,0.516,3.577,0.516,7.058v11.73
		c0,2.32,0.209,3.766,0.628,4.334c0.419,0.57,1.294,0.93,2.626,1.08V111H126.56v-1.16c1.139-0.15,1.955-0.623,2.449-1.418
		c0.343-0.537,0.516-1.869,0.516-3.996V91.02c0-2.471-0.097-4.028-0.29-4.673s-0.521-1.144-0.983-1.499
		c-0.462-0.354-0.972-0.531-1.531-0.531c-1.848,0-3.566,1.321-5.156,3.964v16.146c0,2.256,0.209,3.685,0.628,4.286
		s1.197,0.978,2.336,1.128V111h-15.243v-1.16c1.268-0.129,2.17-0.537,2.707-1.225c0.365-0.473,0.548-1.869,0.548-4.189V87.41
		c0-2.277-0.209-3.695-0.628-4.254s-1.294-0.924-2.626-1.096v-1.192H121.565z"/>
	<path fill="#5674B9" d="M168.899,103.233l0.999,0.773c-1.418,2.664-3.186,4.646-5.301,5.946c-2.116,1.299-4.367,1.949-6.751,1.949
		c-4.018,0-7.23-1.515-9.636-4.544c-2.406-3.029-3.609-6.671-3.609-10.925c0-4.104,1.096-7.713,3.287-10.828
		c2.643-3.76,6.284-5.64,10.925-5.64c3.115,0,5.591,0.784,7.428,2.353s2.755,3.319,2.755,5.253c0,1.225-0.371,2.202-1.112,2.933
		s-1.713,1.096-2.917,1.096c-1.268,0-2.315-0.419-3.142-1.257c-0.827-0.838-1.337-2.331-1.531-4.479
		c-0.129-1.354-0.44-2.299-0.935-2.836c-0.495-0.537-1.075-0.806-1.74-0.806c-1.031,0-1.913,0.548-2.643,1.644
		c-1.117,1.654-1.676,4.189-1.676,7.605c0,2.836,0.451,5.549,1.354,8.137c0.902,2.59,2.138,4.518,3.706,5.785
		c1.181,0.924,2.578,1.386,4.189,1.386c1.052,0,2.051-0.247,2.997-0.741C166.493,105.543,167.61,104.608,168.899,103.233z"/>
	<path fill="#5674B9" d="M197.478,94.854h-16.532c0.193,3.996,1.257,7.154,3.19,9.475c1.482,1.783,3.266,2.675,5.35,2.675
		c1.289,0,2.46-0.359,3.513-1.08c1.052-0.719,2.18-2.014,3.384-3.883l1.096,0.709c-1.633,3.33-3.438,5.688-5.414,7.074
		c-1.977,1.385-4.265,2.078-6.864,2.078c-4.469,0-7.853-1.719-10.151-5.156c-1.848-2.771-2.771-6.209-2.771-10.313
		c0-5.027,1.358-9.028,4.077-12.004c2.718-2.976,5.902-4.464,9.555-4.464c3.05,0,5.699,1.252,7.944,3.755
		C196.097,86.224,197.306,89.935,197.478,94.854z M189.55,92.695c0-3.459-0.188-5.833-0.564-7.122
		c-0.376-1.289-0.962-2.267-1.756-2.933c-0.451-0.387-1.053-0.58-1.805-0.58c-1.117,0-2.03,0.548-2.739,1.644
		c-1.268,1.912-1.901,4.533-1.901,7.863v1.128H189.55z"/>
	<path fill="#5674B9" d="M236.395,109.808V111h-22.849v-1.192h1.45c1.268,0,2.288-0.226,3.062-0.677
		c0.559-0.301,0.988-0.816,1.289-1.547c0.236-0.516,0.354-1.869,0.354-4.061V74.777c0-2.234-0.118-3.631-0.354-4.189
		s-0.715-1.047-1.435-1.467c-0.72-0.418-1.691-0.628-2.916-0.628h-1.45v-1.192h22.849v1.192h-1.45c-1.268,0-2.288,0.226-3.062,0.677
		c-0.559,0.301-0.999,0.816-1.321,1.547c-0.236,0.516-0.354,1.869-0.354,4.061v28.746c0,2.234,0.123,3.631,0.371,4.189
		c0.246,0.559,0.729,1.047,1.449,1.467c0.72,0.418,1.692,0.628,2.917,0.628H236.395z"/>
	<path fill="#5674B9" d="M250.794,80.868v3.899c1.547-1.676,3.029-2.895,4.447-3.658c1.418-0.762,2.943-1.144,4.576-1.144
		c1.955,0,3.577,0.543,4.866,1.628s2.148,2.433,2.578,4.044c0.344,1.225,0.516,3.577,0.516,7.058v11.73
		c0,2.32,0.209,3.766,0.629,4.334c0.418,0.57,1.294,0.93,2.626,1.08V111h-15.243v-1.16c1.139-0.15,1.955-0.623,2.449-1.418
		c0.344-0.537,0.516-1.869,0.516-3.996V91.02c0-2.471-0.097-4.028-0.29-4.673s-0.521-1.144-0.983-1.499
		c-0.462-0.354-0.972-0.531-1.53-0.531c-1.848,0-3.566,1.321-5.156,3.964v16.146c0,2.256,0.21,3.685,0.628,4.286
		c0.42,0.602,1.198,0.978,2.337,1.128V111h-15.243v-1.16c1.268-0.129,2.17-0.537,2.707-1.225c0.365-0.473,0.548-1.869,0.548-4.189
		V87.41c0-2.277-0.21-3.695-0.628-4.254c-0.42-0.559-1.295-0.924-2.627-1.096v-1.192H250.794z"/>
	<path fill="#5674B9" d="M302.833,67.301v34.676c0,2.342,0.064,3.728,0.193,4.157c0.172,0.709,0.5,1.235,0.982,1.579
		c0.484,0.344,1.327,0.559,2.53,0.645v1.063l-12.729,2.481v-4.77c-1.525,1.848-2.885,3.104-4.076,3.771
		c-1.193,0.666-2.541,0.999-4.045,0.999c-3.846,0-6.886-1.719-9.12-5.156c-1.805-2.793-2.707-6.22-2.707-10.28
		c0-3.244,0.559-6.149,1.676-8.718c1.117-2.566,2.647-4.506,4.593-5.816c1.943-1.311,4.033-1.966,6.268-1.966
		c1.439,0,2.718,0.279,3.835,0.838s2.31,1.536,3.577,2.933v-9.088c0-2.299-0.097-3.685-0.29-4.157
		c-0.258-0.623-0.645-1.085-1.16-1.386s-1.482-0.451-2.9-0.451v-1.354H302.833z M293.81,87.732c-1.59-3.051-3.534-4.576-5.833-4.576
		c-0.795,0-1.45,0.215-1.966,0.645c-0.795,0.666-1.445,1.837-1.949,3.513c-0.506,1.676-0.758,4.243-0.758,7.702
		c0,3.803,0.279,6.617,0.838,8.443s1.321,3.147,2.288,3.964c0.494,0.408,1.171,0.612,2.03,0.612c1.891,0,3.674-1.482,5.35-4.447
		V87.732z"/>
	<path fill="#5674B9" d="M334.118,94.854h-16.532c0.193,3.996,1.257,7.154,3.19,9.475c1.482,1.783,3.266,2.675,5.35,2.675
		c1.289,0,2.46-0.359,3.513-1.08c1.053-0.719,2.181-2.014,3.384-3.883l1.096,0.709c-1.633,3.33-3.438,5.688-5.414,7.074
		c-1.977,1.385-4.265,2.078-6.864,2.078c-4.469,0-7.853-1.719-10.151-5.156c-1.848-2.771-2.771-6.209-2.771-10.313
		c0-5.027,1.358-9.028,4.077-12.004c2.717-2.976,5.902-4.464,9.555-4.464c3.051,0,5.698,1.252,7.943,3.755
		S333.946,89.935,334.118,94.854z M326.19,92.695c0-3.459-0.188-5.833-0.563-7.122c-0.377-1.289-0.962-2.267-1.757-2.933
		c-0.451-0.387-1.053-0.58-1.805-0.58c-1.117,0-2.03,0.548-2.739,1.644c-1.268,1.912-1.901,4.533-1.901,7.863v1.128H326.19z"/>
	<path fill="#5674B9" d="M354.061,92.534l5.221,9.926c1.805,3.459,3.233,5.65,4.286,6.574c0.58,0.494,1.375,0.763,2.385,0.806V111
		h-16.79v-1.16c1.311-0.107,2.121-0.279,2.434-0.516c0.311-0.236,0.467-0.559,0.467-0.967c0-0.602-0.344-1.547-1.031-2.836
		l-2.61-4.898l-2.224,3.255c-1.01,1.482-1.579,2.363-1.708,2.643c-0.172,0.408-0.258,0.773-0.258,1.096
		c0,0.494,0.102,0.908,0.306,1.241s0.484,0.58,0.838,0.74c0.355,0.162,1.005,0.242,1.95,0.242V111H335.53v-1.16
		c1.461,0,2.798-0.402,4.013-1.209c1.213-0.805,2.98-2.916,5.301-6.332l2.481-3.674l-5.188-9.604
		c-1.697-3.137-2.965-5.06-3.803-5.769s-1.772-1.106-2.804-1.192v-1.192h16.693v1.192l-0.87,0.032l-1.676,0.58
		c-0.172,0.15-0.258,0.397-0.258,0.741c0,0.322,0.054,0.655,0.161,0.999c0.064,0.15,0.365,0.73,0.902,1.74l2.353,4.383l1.225-1.74
		c1.719-2.363,2.578-4.018,2.578-4.963c0-0.451-0.188-0.832-0.564-1.144s-1.047-0.521-2.014-0.629v-1.192h10.667v1.192
		c-1.311,0.043-2.535,0.446-3.674,1.209s-2.417,2.239-3.835,4.431L354.061,92.534z"/>
</g>
<g>
	<path d="M3.697,23V7.252h5.94c1.045,0,1.844,0.05,2.396,0.15c0.773,0.129,1.421,0.375,1.944,0.736
		C14.5,8.5,14.921,9.007,15.24,9.658c0.318,0.652,0.478,1.368,0.478,2.148c0,1.339-0.426,2.473-1.278,3.4
		c-0.853,0.928-2.392,1.391-4.619,1.391H5.781V23H3.697z M5.781,14.739h4.071c1.346,0,2.302-0.25,2.868-0.752
		c0.565-0.501,0.849-1.207,0.849-2.116c0-0.659-0.167-1.223-0.5-1.692C12.737,9.71,12.298,9.4,11.754,9.25
		c-0.351-0.093-0.999-0.14-1.944-0.14H5.781V14.739z"/>
	<path d="M18.287,15.33c0-2.614,0.702-4.66,2.105-6.139c1.403-1.479,3.215-2.218,5.436-2.218c1.454,0,2.764,0.348,3.932,1.042
		c1.167,0.695,2.057,1.664,2.669,2.906c0.612,1.243,0.918,2.652,0.918,4.227c0,1.597-0.322,3.026-0.967,4.286
		c-0.645,1.261-1.558,2.215-2.739,2.863c-1.182,0.648-2.457,0.972-3.824,0.972c-1.482,0-2.808-0.358-3.975-1.074
		c-1.167-0.716-2.052-1.693-2.653-2.933C18.588,18.023,18.287,16.712,18.287,15.33z M20.436,15.362c0,1.898,0.51,3.393,1.531,4.485
		c1.021,1.092,2.3,1.638,3.84,1.638c1.568,0,2.859-0.551,3.873-1.654c1.013-1.103,1.52-2.667,1.52-4.694
		c0-1.282-0.217-2.401-0.65-3.357c-0.434-0.956-1.067-1.697-1.901-2.224c-0.834-0.526-1.771-0.79-2.809-0.79
		c-1.476,0-2.745,0.507-3.808,1.52C20.967,11.3,20.436,12.992,20.436,15.362z"/>
	<path d="M47.82,17.479l2.084,0.526c-0.437,1.712-1.223,3.017-2.358,3.916c-1.135,0.899-2.523,1.348-4.163,1.348
		c-1.697,0-3.078-0.345-4.141-1.037c-1.063-0.691-1.873-1.692-2.428-3.002c-0.555-1.311-0.833-2.718-0.833-4.222
		c0-1.64,0.313-3.07,0.94-4.292c0.626-1.221,1.518-2.148,2.675-2.782c1.156-0.634,2.429-0.951,3.819-0.951
		c1.575,0,2.9,0.401,3.975,1.203c1.074,0.802,1.822,1.93,2.245,3.384l-2.052,0.483c-0.365-1.146-0.896-1.98-1.59-2.503
		c-0.695-0.522-1.568-0.784-2.621-0.784c-1.21,0-2.222,0.29-3.035,0.87c-0.813,0.58-1.384,1.359-1.713,2.336
		c-0.33,0.978-0.494,1.986-0.494,3.024c0,1.339,0.195,2.508,0.585,3.507c0.39,0.999,0.997,1.746,1.821,2.24
		c0.823,0.494,1.715,0.741,2.675,0.741c1.167,0,2.155-0.336,2.965-1.01C46.985,19.803,47.533,18.804,47.82,17.479z"/>
	<path d="M64.257,17.479l2.084,0.526c-0.437,1.712-1.223,3.017-2.358,3.916c-1.135,0.899-2.523,1.348-4.163,1.348
		c-1.697,0-3.078-0.345-4.141-1.037c-1.063-0.691-1.873-1.692-2.428-3.002c-0.555-1.311-0.833-2.718-0.833-4.222
		c0-1.64,0.313-3.07,0.94-4.292c0.626-1.221,1.518-2.148,2.675-2.782c1.156-0.634,2.429-0.951,3.819-0.951
		c1.575,0,2.9,0.401,3.975,1.203c1.074,0.802,1.822,1.93,2.245,3.384l-2.052,0.483c-0.365-1.146-0.896-1.98-1.59-2.503
		c-0.695-0.522-1.568-0.784-2.621-0.784c-1.21,0-2.222,0.29-3.035,0.87c-0.813,0.58-1.384,1.359-1.713,2.336
		c-0.33,0.978-0.494,1.986-0.494,3.024c0,1.339,0.195,2.508,0.585,3.507c0.39,0.999,0.997,1.746,1.821,2.24
		c0.823,0.494,1.715,0.741,2.675,0.741c1.167,0,2.155-0.336,2.965-1.01C63.423,19.803,63.971,18.804,64.257,17.479z"/>
	<path d="M69.491,7.252h1.891v12.472l8.379-12.472h2.095V23h-1.891V10.561L71.575,23h-2.084V7.252z"/>
	<path d="M85.854,7.252h1.891v12.472l8.379-12.472h2.095V23h-1.891V10.561L87.938,23h-2.084V7.252z M93.685,3.503h1.321
		c-0.107,0.896-0.435,1.583-0.983,2.063c-0.548,0.48-1.277,0.72-2.186,0.72c-0.917,0-1.649-0.238-2.197-0.714
		c-0.548-0.476-0.875-1.166-0.983-2.068h1.321c0.1,0.487,0.299,0.851,0.596,1.09c0.297,0.24,0.696,0.36,1.198,0.36
		c0.58,0,1.019-0.116,1.316-0.349C93.385,4.372,93.584,4.004,93.685,3.503z"/>
	<path d="M113.42,17.479l2.084,0.526c-0.437,1.712-1.223,3.017-2.358,3.916c-1.135,0.899-2.523,1.348-4.163,1.348
		c-1.697,0-3.078-0.345-4.141-1.037c-1.063-0.691-1.873-1.692-2.428-3.002c-0.555-1.311-0.833-2.718-0.833-4.222
		c0-1.64,0.313-3.07,0.94-4.292c0.626-1.221,1.518-2.148,2.675-2.782c1.156-0.634,2.429-0.951,3.819-0.951
		c1.575,0,2.9,0.401,3.975,1.203c1.074,0.802,1.822,1.93,2.245,3.384l-2.052,0.483c-0.365-1.146-0.896-1.98-1.59-2.503
		c-0.695-0.522-1.568-0.784-2.621-0.784c-1.21,0-2.222,0.29-3.035,0.87c-0.813,0.58-1.384,1.359-1.713,2.336
		c-0.33,0.978-0.494,1.986-0.494,3.024c0,1.339,0.195,2.508,0.585,3.507c0.39,0.999,0.997,1.746,1.821,2.24
		c0.823,0.494,1.715,0.741,2.675,0.741c1.167,0,2.155-0.336,2.965-1.01C112.585,19.803,113.133,18.804,113.42,17.479z"/>
	<path d="M118.654,7.252h2.084v6.896c0.952,0,1.622-0.184,2.009-0.553c0.387-0.369,0.881-1.255,1.482-2.659
		c0.437-1.031,0.796-1.76,1.08-2.186c0.283-0.426,0.686-0.784,1.208-1.074c0.522-0.29,1.099-0.435,1.729-0.435
		c0.802,0,1.225,0.007,1.268,0.021v1.805c-0.072,0-0.211-0.003-0.419-0.011c-0.229-0.007-0.369-0.011-0.419-0.011
		c-0.666,0-1.16,0.161-1.482,0.483c-0.33,0.322-0.706,1.01-1.128,2.063c-0.53,1.332-0.978,2.172-1.343,2.519
		c-0.365,0.348-0.802,0.625-1.311,0.833c1.017,0.279,2.02,1.218,3.008,2.814L129.665,23h-2.589l-2.632-4.275
		c-0.724-1.182-1.329-1.993-1.815-2.433c-0.487-0.44-1.117-0.661-1.891-0.661V23h-2.084V7.252z"/>
	<path d="M132.019,7.252h1.891v12.472l8.379-12.472h2.095V23h-1.891V10.561L134.103,23h-2.084V7.252z"/>
	<path d="M148.382,7.252h1.891v12.472l8.379-12.472h2.095V23h-1.891V10.561L150.466,23h-2.084V7.252z M156.213,3.503h1.321
		c-0.107,0.896-0.435,1.583-0.983,2.063c-0.548,0.48-1.277,0.72-2.186,0.72c-0.917,0-1.649-0.238-2.197-0.714
		c-0.548-0.476-0.875-1.166-0.983-2.068h1.321c0.1,0.487,0.299,0.851,0.596,1.09c0.297,0.24,0.696,0.36,1.198,0.36
		c0.58,0,1.019-0.116,1.316-0.349C155.914,4.372,156.112,4.004,156.213,3.503z"/>
	<path d="M171.406,7.252h1.891v12.472l8.379-12.472h2.095V23h-1.891V10.561L173.49,23h-2.084V7.252z"/>
	<path d="M187.801,23V7.252h2.084v6.467h8.186V7.252h2.084V23h-2.084v-7.423h-8.186V23H187.801z"/>
	<path d="M205.603,7.252h9.583v13.89h1.418v5.532h-1.858V23h-10.41v3.674h-1.858v-5.532h1.225c1.268-1.912,1.901-5.775,1.901-11.591
		V7.252z M213.102,9.11h-5.49v0.806c0,1.339-0.12,3.171-0.36,5.495c-0.24,2.324-0.711,4.234-1.413,5.731h7.262V9.11z"/>
	<path d="M219.667,23V7.252h11.387V9.11h-9.303v4.823h8.712v1.848h-8.712v5.36h9.668V23H219.667z"/>
	<path d="M234.88,7.252h2.084v6.896c0.952,0,1.622-0.184,2.009-0.553c0.387-0.369,0.881-1.255,1.482-2.659
		c0.437-1.031,0.797-1.76,1.08-2.186c0.282-0.426,0.686-0.784,1.208-1.074s1.1-0.435,1.729-0.435c0.802,0,1.225,0.007,1.268,0.021
		v1.805c-0.071,0-0.211-0.003-0.419-0.011c-0.229-0.007-0.369-0.011-0.419-0.011c-0.666,0-1.16,0.161-1.482,0.483
		c-0.329,0.322-0.705,1.01-1.128,2.063c-0.53,1.332-0.978,2.172-1.343,2.519c-0.365,0.348-0.802,0.625-1.311,0.833
		c1.017,0.279,2.02,1.218,3.008,2.814L245.891,23h-2.589l-2.632-4.275c-0.724-1.182-1.328-1.993-1.815-2.433
		s-1.117-0.661-1.891-0.661V23h-2.084V7.252z"/>
	<path d="M259.449,17.479l2.084,0.526c-0.437,1.712-1.223,3.017-2.357,3.916c-1.136,0.899-2.523,1.348-4.163,1.348
		c-1.697,0-3.077-0.345-4.142-1.037c-1.063-0.691-1.872-1.692-2.428-3.002c-0.555-1.311-0.832-2.718-0.832-4.222
		c0-1.64,0.313-3.07,0.939-4.292c0.627-1.221,1.519-2.148,2.676-2.782c1.156-0.634,2.429-0.951,3.818-0.951
		c1.575,0,2.9,0.401,3.975,1.203c1.074,0.802,1.822,1.93,2.245,3.384l-2.052,0.483c-0.365-1.146-0.896-1.98-1.59-2.503
		c-0.694-0.522-1.568-0.784-2.621-0.784c-1.21,0-2.222,0.29-3.035,0.87c-0.813,0.58-1.384,1.359-1.713,2.336
		s-0.494,1.986-0.494,3.024c0,1.339,0.195,2.508,0.586,3.507c0.39,0.999,0.997,1.746,1.82,2.24s1.715,0.741,2.675,0.741
		c1.167,0,2.155-0.336,2.965-1.01C258.615,19.803,259.163,18.804,259.449,17.479z"/>
	<path d="M3.762,49.4V33.652h2.084v6.467h8.186v-6.467h2.084V49.4h-2.084v-7.423H5.846V49.4H3.762z"/>
	<path d="M18.405,49.4l6.048-15.748h2.245L33.144,49.4H30.77l-1.837-4.77h-6.585l-1.729,4.77H18.405z M22.949,42.933h5.339
		l-1.644-4.361c-0.501-1.325-0.874-2.413-1.117-3.266c-0.201,1.01-0.483,2.013-0.849,3.008L22.949,42.933z"/>
	<path d="M33.769,33.652h2.105l5.135,9.646l4.49-9.646h2.073l-5.908,12.246c-0.738,1.533-1.343,2.535-1.815,3.008
		s-1.149,0.709-2.03,0.709c-0.537,0-1.196-0.125-1.977-0.376v-1.783c0.559,0.322,1.149,0.483,1.772,0.483
		c0.508,0,0.947-0.163,1.316-0.489c0.369-0.326,0.775-1.069,1.219-2.229L33.769,33.652z"/>
	<path d="M61.121,49.4h-2.084v-6.349c-1.869,0.695-3.506,1.042-4.909,1.042c-1.096,0-2.063-0.256-2.9-0.768
		c-0.838-0.512-1.398-1.162-1.681-1.95c-0.283-0.788-0.424-1.819-0.424-3.094v-4.63h2.084v4.437c0,1.719,0.313,2.849,0.94,3.389
		c0.626,0.541,1.38,0.811,2.261,0.811c1.468,0,3.011-0.326,4.63-0.978v-7.659h2.084V49.4z"/>
	<path d="M65.162,49.4V33.652h2.084v6.467h8.186v-6.467h2.084V49.4h-2.084v-7.423h-8.186V49.4H65.162z"/>
	<path d="M80.901,41.73c0-2.614,0.702-4.66,2.105-6.139c1.403-1.479,3.215-2.218,5.436-2.218c1.454,0,2.764,0.348,3.932,1.042
		c1.167,0.695,2.057,1.664,2.669,2.906c0.612,1.243,0.918,2.652,0.918,4.227c0,1.597-0.322,3.026-0.967,4.286
		c-0.645,1.261-1.558,2.215-2.739,2.863c-1.182,0.648-2.457,0.972-3.824,0.972c-1.482,0-2.808-0.358-3.975-1.074
		c-1.167-0.716-2.052-1.693-2.653-2.933C81.202,44.423,80.901,43.112,80.901,41.73z M83.05,41.762c0,1.898,0.51,3.393,1.531,4.485
		c1.021,1.092,2.3,1.638,3.84,1.638c1.568,0,2.859-0.551,3.873-1.654c1.013-1.103,1.52-2.667,1.52-4.694
		c0-1.282-0.217-2.401-0.65-3.357c-0.434-0.956-1.067-1.697-1.901-2.224c-0.834-0.526-1.771-0.79-2.809-0.79
		c-1.476,0-2.745,0.507-3.808,1.52C83.582,37.7,83.05,39.392,83.05,41.762z"/>
	<path d="M99.229,33.652h10.184v1.858h-8.1V49.4h-2.084V33.652z"/>
	<path d="M111.027,41.73c0-2.614,0.702-4.66,2.105-6.139c1.403-1.479,3.215-2.218,5.436-2.218c1.454,0,2.764,0.348,3.932,1.042
		c1.167,0.695,2.057,1.664,2.669,2.906c0.612,1.243,0.918,2.652,0.918,4.227c0,1.597-0.322,3.026-0.967,4.286
		c-0.645,1.261-1.558,2.215-2.739,2.863c-1.182,0.648-2.457,0.972-3.824,0.972c-1.482,0-2.808-0.358-3.975-1.074
		c-1.167-0.716-2.052-1.693-2.653-2.933C111.328,44.423,111.027,43.112,111.027,41.73z M113.175,41.762
		c0,1.898,0.51,3.393,1.531,4.485c1.021,1.092,2.3,1.638,3.84,1.638c1.568,0,2.859-0.551,3.873-1.654
		c1.013-1.103,1.52-2.667,1.52-4.694c0-1.282-0.217-2.401-0.65-3.357c-0.434-0.956-1.067-1.697-1.901-2.224
		c-0.834-0.526-1.771-0.79-2.809-0.79c-1.476,0-2.745,0.507-3.808,1.52C113.707,37.7,113.175,39.392,113.175,41.762z"/>
	<path d="M135.996,33.652h2.084v13.89h8.207v-13.89h2.095v13.89h1.439v6.23h-1.848V49.4h-11.978V33.652z"/>
	<path d="M152.842,33.652h1.891v12.472l8.379-12.472h2.095V49.4h-1.891V36.96l-8.39,12.439h-2.084V33.652z"/>
	<path d="M173.179,49.4V35.51h-5.188v-1.858h12.482v1.858h-5.21V49.4H173.179z"/>
	<path d="M183.193,33.652h1.891v12.472l8.379-12.472h2.095V49.4h-1.891V36.96l-8.39,12.439h-2.084V33.652z"/>
	<path d="M199.523,49.4V33.652h5.94c1.045,0,1.844,0.05,2.396,0.15c0.773,0.129,1.421,0.375,1.944,0.736
		c0.522,0.362,0.943,0.869,1.262,1.52c0.318,0.652,0.479,1.368,0.479,2.148c0,1.339-0.427,2.473-1.279,3.4
		c-0.853,0.928-2.392,1.391-4.619,1.391h-4.039V49.4H199.523z M201.607,41.139h4.071c1.346,0,2.302-0.25,2.868-0.752
		c0.565-0.501,0.849-1.207,0.849-2.116c0-0.659-0.167-1.223-0.5-1.692c-0.333-0.469-0.772-0.779-1.316-0.929
		c-0.351-0.093-0.999-0.14-1.944-0.14h-4.028V41.139z"/>
	<path d="M214.113,41.73c0-2.614,0.702-4.66,2.105-6.139c1.403-1.479,3.216-2.218,5.436-2.218c1.454,0,2.765,0.348,3.932,1.042
		c1.167,0.695,2.058,1.664,2.669,2.906c0.613,1.243,0.919,2.652,0.919,4.227c0,1.597-0.322,3.026-0.967,4.286
		c-0.645,1.261-1.558,2.215-2.739,2.863c-1.182,0.648-2.456,0.972-3.824,0.972c-1.482,0-2.808-0.358-3.975-1.074
		c-1.167-0.716-2.052-1.693-2.653-2.933C214.414,44.423,214.113,43.112,214.113,41.73z M216.262,41.762
		c0,1.898,0.511,3.393,1.53,4.485c1.021,1.092,2.301,1.638,3.841,1.638c1.568,0,2.859-0.551,3.872-1.654
		c1.014-1.103,1.521-2.667,1.521-4.694c0-1.282-0.217-2.401-0.649-3.357c-0.434-0.956-1.067-1.697-1.902-2.224
		c-0.834-0.526-1.771-0.79-2.809-0.79c-1.476,0-2.744,0.507-3.809,1.52C216.794,37.7,216.262,39.392,216.262,41.762z"/>
	<path d="M232.323,49.4V33.652h5.908c1.203,0,2.168,0.16,2.895,0.478c0.728,0.319,1.297,0.81,1.709,1.472
		c0.411,0.663,0.617,1.355,0.617,2.079c0,0.673-0.183,1.307-0.548,1.901c-0.365,0.595-0.917,1.074-1.654,1.439
		c0.952,0.279,1.685,0.756,2.196,1.429c0.513,0.673,0.769,1.468,0.769,2.385c0,0.738-0.155,1.423-0.468,2.057
		c-0.311,0.634-0.696,1.123-1.154,1.466s-1.033,0.604-1.725,0.779c-0.69,0.176-1.537,0.263-2.54,0.263H232.323z M234.407,40.269
		h3.405c0.924,0,1.586-0.061,1.987-0.183c0.53-0.157,0.93-0.419,1.197-0.784c0.27-0.365,0.403-0.823,0.403-1.375
		c0-0.522-0.125-0.983-0.376-1.38s-0.608-0.669-1.074-0.816c-0.466-0.146-1.264-0.22-2.396-0.22h-3.147V40.269z M234.407,47.542
		h3.921c0.673,0,1.146-0.025,1.418-0.075c0.479-0.086,0.881-0.229,1.203-0.43c0.322-0.2,0.587-0.492,0.795-0.875
		c0.208-0.383,0.312-0.825,0.312-1.327c0-0.587-0.15-1.097-0.451-1.531c-0.301-0.433-0.718-0.737-1.252-0.913
		c-0.533-0.175-1.301-0.263-2.304-0.263h-3.642V47.542z"/>
	<path d="M245.903,49.4l6.048-15.748h2.245l6.445,15.748h-2.374l-1.837-4.77h-6.585l-1.729,4.77H245.903z M250.447,42.933h5.339
		l-1.644-4.361c-0.501-1.325-0.874-2.413-1.117-3.266c-0.2,1.01-0.483,2.013-0.849,3.008L250.447,42.933z"/>
	<path d="M262.921,49.4V33.652h2.084v6.467h8.186v-6.467h2.084V49.4h-2.084v-7.423h-8.186V49.4H262.921z"/>
	<path d="M279.327,33.652h1.891v12.472l8.379-12.472h2.095V49.4h-1.891V36.96l-8.39,12.439h-2.084V33.652z"/>
	<path d="M306.034,49.4v-6.993h-2.417c-0.537,0-0.924,0.025-1.16,0.075c-0.322,0.079-0.64,0.219-0.95,0.419
		c-0.313,0.201-0.665,0.552-1.059,1.053c-0.394,0.501-0.896,1.225-1.504,2.17L296.86,49.4h-2.621l2.739-4.286
		c0.544-0.838,1.121-1.536,1.729-2.095c0.286-0.258,0.705-0.519,1.257-0.784c-1.511-0.208-2.628-0.694-3.352-1.461
		c-0.724-0.766-1.085-1.708-1.085-2.825c0-0.866,0.219-1.658,0.655-2.374c0.437-0.716,1.021-1.215,1.751-1.499
		c0.73-0.283,1.798-0.424,3.201-0.424h6.982V49.4H306.034z M306.034,35.392h-4.984c-1.167,0-2.021,0.24-2.563,0.72
		c-0.54,0.48-0.811,1.092-0.811,1.837c0,0.509,0.14,0.979,0.419,1.413c0.279,0.434,0.688,0.749,1.225,0.945
		c0.537,0.197,1.282,0.295,2.234,0.295h4.479V35.392z"/>
</g>
<g>
</g>
<g>
</g>
<g>
</g>
<g>
</g>
<g>
</g>
<g>
</g>
<g>
</g>
<g>
</g>
<g>
</g>
<g>
</g>
<g>
</g>
<g>
</g>
<g>
</g>
<g>
</g>
<g>
</g>
</svg>
